HIERARCHY
ROOT Hips
{
    OFFSET 0.000000 0.000000 0.000000
    CHANNELS 6 Xposition Yposition Zposition Zrotation Xrotation Yrotation
    JOINT Spine
    {
        OFFSET -0.000000 14.517291 0.000000
        CHANNELS 3 Zrotation Xrotation Yrotation
        JOINT Spine1
        {
            OFFSET -0.000000 37.558300 0.000000
            CHANNELS 3 Zrotation Xrotation Yrotation
            JOINT Neck
            {
                OFFSET -0.000000 37.404057 3.400369
                CHANNELS 3 Zrotation Xrotation Yrotation
                JOINT Head
                {
                    OFFSET -0.000000 24.785618 -3.540803
                    CHANNELS 3 Zrotation Xrotation Yrotation
                    End Site
                    {
                        OFFSET -0.000000 35.408028 0.000000
                    }
                }
            }
            JOINT LeftShoulder
            {
                OFFSET 6.992933 33.973492 -0.192664
                CHANNELS 3 Zrotation Xrotation Yrotation
                JOINT LeftArm
                {
                    OFFSET 21.527611 0.000000 0.000000
                    CHANNELS 3 Zrotation Xrotation Yrotation
                    JOINT LeftForeArm
                    {
                        OFFSET 56.353916 0.000000 0.000000
                        CHANNELS 3 Zrotation Xrotation Yrotation
                        JOINT LeftHand
                        {
                            OFFSET 47.774071 0.000000 0.000000
                            CHANNELS 3 Zrotation Xrotation Yrotation
                            End Site
                            {
                                OFFSET 26.556021 0.000000 0.000000
                            }
                        }
                    }
                }
            }
            JOINT RightShoulder
            {
                OFFSET -7.065357 33.973492 -0.192664
                CHANNELS 3 Zrotation Xrotation Yrotation
                JOINT RightArm
                {
                    OFFSET -21.527611 0.000000 0.000000
                    CHANNELS 3 Zrotation Xrotation Yrotation
                    JOINT RightForeArm
                    {
                        OFFSET -56.353916 0.000000 0.000000
                        CHANNELS 3 Zrotation Xrotation Yrotation
                        JOINT RightHand
                        {
                            OFFSET -47.774071 0.000000 0.000000
                            CHANNELS 3 Zrotation Xrotation Yrotation
                            End Site
                            {
                                OFFSET -26.556021 0.000000 0.000000
                            }
                        }
                    }
                }
            }
        }
    }
    JOINT LeftUpLeg
    {
        OFFSET 17.704014 0.000000 0.000000
        CHANNELS 3 Zrotation Xrotation Yrotation
        JOINT LeftLeg
        {
            OFFSET -0.000000 -81.181816 0.000000
            CHANNELS 3 Zrotation Xrotation Yrotation
            JOINT LeftFoot
            {
                OFFSET -0.000000 -62.821102 0.000000
                CHANNELS 3 Zrotation Xrotation Yrotation
                JOINT LeftToeBase
                {
                    OFFSET -0.000000 -11.507608 26.556021
                    CHANNELS 3 Zrotation Xrotation Yrotation
                    End Site
                    {
                        OFFSET -0.000000 0.000000 7.081605
                    }
                }
            }
        }
    }
    JOINT RightUpLeg
    {
        OFFSET -17.704014 0.000000 0.000000
        CHANNELS 3 Zrotation Xrotation Yrotation
        JOINT RightLeg
        {
            OFFSET -0.000000 -81.181816 0.000000
            CHANNELS 3 Zrotation Xrotation Yrotation
            JOINT RightFoot
            {
                OFFSET -0.000000 -62.821102 0.000000
                CHANNELS 3 Zrotation Xrotation Yrotation
                JOINT RightToeBase
                {
                    OFFSET -0.000000 -11.507608 26.556021
                    CHANNELS 3 Zrotation Xrotation Yrotation
                    End Site
                    {
                        OFFSET -0.000000 0.000000 7.081605
                    }
                }
            }
        }
    }
}
MOTION
Frames:    4
Frame Time:    0.008333
28.500626    160.384598    -98.982063    -0.715427    -3.438794    39.915482    4.359790    -4.436792    7.129138    -11.536645    3.772631    2.699051    1.914607    -2.196966    -8.583345    14.318372    1.815542    -7.448639    6.159993    2.117966    -12.491777    -35.743301    13.043429    -53.620804    -8.736860    -21.292528    -117.586349    -3.976907    -33.756798    -12.322254    -18.079599    -0.584885    3.970990    12.792159    -6.497855    54.126602    15.461022    22.248137    -2.103902    5.690677    23.298264    17.041277    13.540077    -0.421014    -6.691162    -9.001573    22.570921    -20.956141    2.448229    -20.808035    40.547100    0.000000    0.000000    0.000000    -15.134007    -20.135551    -14.784148    11.684575    28.238827    -15.357378    4.346743    8.501121    -15.899045    0.000000    0.000000    0.000000    
28.565889    160.372040    -98.991669    -0.735022    -3.459108    39.702648    4.293330    -4.461441    7.031712    -11.458460    3.763300    2.663690    2.128598    -2.197916    -8.392361    14.123895    1.741446    -7.300774    6.208011    2.149029    -12.487041    -35.786434    13.013020    -53.616055    -8.764516    -21.268160    -117.579491    -3.900508    -33.780460    -12.277658    -17.989367    -0.533367    3.832740    12.829486    -6.512072    53.843201    15.573821    22.302540    -2.211955    5.692181    23.362690    16.928703    13.535121    -0.352358    -6.665673    -9.048485    22.604500    -20.877329    2.522666    -20.867407    40.655041    0.000000    0.000000    0.000000    -15.053616    -20.165892    -14.636582    11.673971    28.188421    -15.330918    4.332184    8.519341    -15.862680    0.000000    0.000000    0.000000    
28.625694    160.361145    -99.000755    -0.763850    -3.484581    39.490978    4.218199    -4.455760    6.931362    -11.345748    3.711869    2.622522    2.281443    -2.213833    -8.210786    13.977944    1.699996    -7.150708    6.231672    2.183156    -12.476867    -35.814457    13.009234    -53.626499    -8.745029    -21.289852    -117.539124    -3.946560    -33.758038    -12.304618    -17.915667    -0.442998    3.638907    12.802469    -6.460725    53.601395    15.649890    22.332718    -2.318348    5.714993    23.411146    16.941391    13.520266    -0.247234    -6.644233    -9.084306    22.650410    -20.799614    2.708264    -20.970819    40.838886    0.000000    0.000000    0.000000    -14.908814    -20.216518    -14.655699    11.446338    28.184818    -15.225163    4.322491    8.566773    -15.681485    0.000000    0.000000    0.000000    
28.680500    160.352112    -99.012184    -0.801418    -3.500586    39.272369    4.154933    -4.477926    6.816271    -11.284485    3.625696    2.574307    2.562592    -2.038562    -8.004632    13.747684    1.494753    -6.983830    6.306453    2.269588    -12.527137    -35.887962    12.948577    -53.568192    -8.741875    -21.279436    -117.507355    -3.965353    -33.734959    -12.315021    -17.751461    -0.482437    3.709463    12.677856    -6.249037    53.030415    15.648839    22.342020    -2.311949    5.857219    23.433483    16.825600    13.525699    -0.196198    -6.604863    -9.117596    22.684351    -20.711367    2.759348    -21.031860    40.917740    0.000000    0.000000    0.000000    -14.810231    -20.261189    -14.526630    11.423018    28.126657    -15.196405    4.296591    8.601688    -15.634196    0.000000    0.000000    0.000000    
